<svg xmlns="http://www.w3.org/2000/svg" viewBox="0 0 16.01 16.01">
    <path
        d="M13.9,9.66h-.31v-3A5.61,5.61,0,0,0,9.75,1.35a1.8,1.8,0,0,0-3.49,0A5.61,5.61,0,0,0,2.42,6.64v3h-.3a2.12,2.12,0,0,0,0,4.24H5a3.15,3.15,0,0,0,6,0H13.9a2.12,2.12,0,0,0,0-4.24ZM8,14.51a1.68,1.68,0,0,1-1.29-.61H9.29A1.67,1.67,0,0,1,8,14.51ZM3.92,6.64a4.1,4.1,0,0,1,3.21-4,.76.76,0,0,0,.59-.82s0-.06,0-.09c0-.29.56-.28.61,0,0,0,0,.06,0,.08a.76.76,0,0,0,.59.82,4.1,4.1,0,0,1,3.21,4v3H3.92Zm10,5.76H2.12a.62.62,0,0,1,0-1.24H13.9a.62.62,0,0,1,0,1.24Z" />
</svg>