<svg xmlns="http://www.w3.org/2000/svg" viewBox="0 0 13.55 15.55">
    <path
        d="M12.05,10.57h-.5V6.26A4.77,4.77,0,0,0,8.26,1.74V1.49a1.49,1.49,0,1,0-3,0v.25A4.78,4.78,0,0,0,2,6.26v4.31H1.5a1.5,1.5,0,0,0,0,3H12.05a1.5,1.5,0,0,0,0-3ZM6.29,1.49A.49.49,0,0,1,6.78,1a.48.48,0,0,1,.48.49v0c-.16,0-.32,0-.48,0s-.33,0-.49,0ZM3,6.26a3.78,3.78,0,0,1,7.55,0v4.31H3Zm9.05,6.31H1.5a.5.5,0,0,1-.5-.5.5.5,0,0,1,.5-.5H12.05a.5.5,0,0,1,.5.5A.5.5,0,0,1,12.05,12.57Z" />
    <path d="M5.29,14.07a1.49,1.49,0,0,0,3,0h-1a.47.47,0,0,1-.48.48.48.48,0,0,1-.49-.48Z" />
</svg>