<svg xmlns="http://www.w3.org/2000/svg" viewBox="0 0 22.16 8.97">
    <g id="圖層_2" data-name="圖層 2">
        <g id="圖層_1-2" data-name="圖層 1">
            <path
                d="M11.08,0C5.76,0,.55,1.85,0,5.8a1.38,1.38,0,0,0,.13.75A6.78,6.78,0,0,0,1.62,8.63a1.4,1.4,0,0,0,1.73.08c.6-.42,1.31-1,1.87-1.48a1.39,1.39,0,0,0,.25-1.87h0a1.4,1.4,0,0,1,.48-2,11,11,0,0,1,10.26,0,1.4,1.4,0,0,1,.48,2h0a1.4,1.4,0,0,0,.25,1.87c.56.48,1.27,1.06,1.87,1.48a1.4,1.4,0,0,0,1.73-.08A6.78,6.78,0,0,0,22,6.55a1.29,1.29,0,0,0,.13-.75C21.61,1.85,16.4,0,11.08,0Z" />
        </g>
    </g>
</svg>