<svg xmlns="http://www.w3.org/2000/svg" viewBox="0 0 409.36 106.13"><defs><style></style></defs><title>logo_title</title><g id="圖層_2" data-name="圖層 2"><g id="圖層_2-2" data-name="圖層 2"><polygon class="cls-1" points="30.68 52.25 18.65 57.99 11.53 66.67 0.48 72.11 0 74.8 3.31 75.82 6.72 78.48 18 75.34 23.85 73.39 25.15 75.12 18.11 80.11 6.18 92.79 4.35 100.54 18.21 106.13 45.23 103.47 53.12 95.7 45.97 89.11 46.51 87.26 50.08 84.23 49.87 74.47 41.74 62.33 36.75 58.21 44.55 57.89 49 50.08 34.8 54.2 47.1 46.99 58.24 34.63 60.84 19.92 57.27 6.5 41.84 0 48.73 7.97 52.88 17.99 49.78 13.57 41.98 11.46 48.97 22.03 50.27 29.75 43.52 40.83 39.3 43.62 40.64 39.1 37.67 33.06 35.64 43.56 31.76 47.91 29 47.31 25.15 43.58 26.56 47.48 28.23 49.16 21.44 46.03 17.94 41.52 16.54 34.04 14.47 37.56 15.13 41.57 10.95 37.83 7.8 30.9 8.56 39.35 14.37 47.37 24.61 51.82 30.68 52.25"/><polygon class="cls-2" points="208.82 52.85 208.82 97.45 220.45 97.45 220.45 73.06 231.47 62.29 231.32 97.45 246.17 97.45 242.78 59.42 232.7 52.85 219.84 62.29 220.76 52.85 208.82 52.85"/><polygon class="cls-2" points="374.14 52.85 374.14 97.45 385.77 97.45 385.77 73.06 396.8 62.29 402 67.83 409.36 61.45 404.95 55.05 398.02 52.85 385.16 62.29 386.08 52.85 374.14 52.85"/><path class="cls-2" d="M321.17,87.45H308.31l.61-10.72h23.27l-6.12-23.88H300l-2.14,44.6h34.29V82.24l-11,.62ZM309.64,60.2h9.08l2.19,8.88H309.18Z"/><path class="cls-2" d="M359.44,87.45H346.58l.62-10.72h23.27l-6.13-23.88h-26l-2.14,44.6h34.3V82.24l-11,.62ZM347.91,60.2H357l2.2,8.88H347.45Z"/><path class="cls-2" d="M192.59,87.45H179.73l.61-10.72h23.27l-6.12-23.88h-26l-2.14,44.6h34.29V82.24l-11,.62ZM181.06,60.2h9.08l2.19,8.88H180.6Z"/><path class="cls-2" d="M280.75,27.13H251.67V97.45h30l11.94-9.39L295,40Zm3.35,53.58-6.56,5.21H262.89V38.15h13l8.92,7.41Z"/><path class="cls-2" d="M101,27.13H87.26l-17,70.32h14l3.06-13.06H102l2.45,13.06H117ZM88.79,72.34,94.3,47.65,100,72.34Z"/><polygon class="cls-2" points="166.41 51.63 158.44 51.82 158.6 39.99 146.81 39.99 147.36 52.09 133.84 52.41 133.34 39.99 121.71 39.99 122.96 52.68 115.89 52.85 115.89 62.8 123.91 62.35 127.37 97.45 135.64 97.45 134.21 61.78 147.77 61.03 149.42 97.45 157.84 97.45 158.33 60.44 166.41 59.99 166.41 51.63"/></g></g></svg>