<svg xmlns="http://www.w3.org/2000/svg" viewBox="0 0 16.01 13.9">
    <circle cx="8.01" cy="5.89" r="1.42" />
    <circle cx="12.26" cy="5.89" r="1.42" />
    <circle cx="3.75" cy="5.89" r="1.42" />
    <path
        d="M.75,13.9a.77.77,0,0,1-.39-.11A.76.76,0,0,1,0,13.15v-11A2.17,2.17,0,0,1,2.17,0H13.85A2.17,2.17,0,0,1,16,2.17V9.62a2.16,2.16,0,0,1-2.16,2.16H5.1l-4,2A.81.81,0,0,1,.75,13.9ZM2.17,1.5a.67.67,0,0,0-.67.67v9.76l3.08-1.57a.77.77,0,0,1,.34-.08h8.93a.67.67,0,0,0,.66-.66V2.17a.67.67,0,0,0-.66-.67Z" />
</svg>