<svg xmlns="http://www.w3.org/2000/svg" viewBox="0 0 18.78 18.32"><g id="圖層_1-2" data-name="圖層 1"><path class="cls-1" d="M3.58,18.32a.76.76,0,0,1-.33-.08.74.74,0,0,1-.42-.67V14.38H2.48A2.49,2.49,0,0,1,0,11.89V2.48A2.48,2.48,0,0,1,2.48,0H16.29a2.49,2.49,0,0,1,2.49,2.48v9.41a2.5,2.5,0,0,1-2.49,2.49H8.92L4,18.16A.78.78,0,0,1,3.58,18.32ZM2.48,1.5a1,1,0,0,0-1,1v9.41a1,1,0,0,0,1,1h1.1a.75.75,0,0,1,.75.75V16l3.88-3a.75.75,0,0,1,.46-.15h7.62a1,1,0,0,0,1-1V2.48a1,1,0,0,0-1-1Z"/><path class="cls-1" d="M5.28,8.55A1.41,1.41,0,1,1,6.69,7.14,1.41,1.41,0,0,1,5.28,8.55Z"/><path class="cls-1" d="M9.39,8.55A1.41,1.41,0,1,1,10.8,7.14,1.41,1.41,0,0,1,9.39,8.55Z"/><path class="cls-1" d="M13.5,8.55a1.41,1.41,0,1,1,1.4-1.41A1.42,1.42,0,0,1,13.5,8.55Z"/></g></svg>