<svg xmlns="http://www.w3.org/2000/svg" viewBox="0 0 15.55 13.15"><defs><style>.cls-1{fill:#040000;}</style></defs><title>message</title><g id="圖層_2" data-name="圖層 2"><g id="圖層_1-2" data-name="圖層 1"><path class="cls-1" d="M2.87,13.15a.59.59,0,0,1-.22-.05.51.51,0,0,1-.28-.45V10H2.29A2.3,2.3,0,0,1,0,7.75V2.29A2.3,2.3,0,0,1,2.29,0h11a2.29,2.29,0,0,1,2.28,2.29V7.75A2.29,2.29,0,0,1,13.27,10H7L3.18,13A.51.51,0,0,1,2.87,13.15ZM2.29,1A1.29,1.29,0,0,0,1,2.29V7.75A1.29,1.29,0,0,0,2.29,9h.58a.5.5,0,0,1,.5.5v2.08L6.56,9.15A.51.51,0,0,1,6.87,9h6.4a1.28,1.28,0,0,0,1.28-1.29V2.29A1.28,1.28,0,0,0,13.27,1Z"/><circle class="cls-1" cx="4.28" cy="5.02" r="1"/><circle class="cls-1" cx="7.78" cy="5.02" r="1"/><circle class="cls-1" cx="11.27" cy="5.02" r="1"/></g></g></svg>