<svg xmlns="http://www.w3.org/2000/svg" viewBox="0 0 11.1 15.26">
    <g id="圖層_2" data-name="圖層 2">
        <g id="圖層_1-2" data-name="圖層 1">
            <path class="cls-1"
                d="M5.55,10a3,3,0,0,1-3-3V3a3,3,0,0,1,6,0V7.05A3,3,0,0,1,5.55,10Zm0-9a2,2,0,0,0-2,2V7.05a2,2,0,0,0,4,0V3A2,2,0,0,0,5.55,1Z" />
            <path class="cls-1"
                d="M10.88,8.81a.5.5,0,0,0-.69.14,5.54,5.54,0,0,1-4.57,2.52l-.07,0-.07,0A5.55,5.55,0,0,1,.92,9a.5.5,0,0,0-.69-.15.51.51,0,0,0-.15.7,6.51,6.51,0,0,0,5,2.93v1.82H3.87a.5.5,0,0,0-.5.5.5.5,0,0,0,.5.5H7.23a.5.5,0,0,0,.5-.5.5.5,0,0,0-.5-.5H6.05V12.44A6.48,6.48,0,0,0,11,9.5.5.5,0,0,0,10.88,8.81Z" />
        </g>
    </g>
</svg>