<svg xmlns="http://www.w3.org/2000/svg" viewBox="0 0 11.96 16.01">
    <path
        d="M11.65.14A.76.76,0,0,0,10.6.31L.14,14.82a.76.76,0,0,0,.17,1A.72.72,0,0,0,.75,16a.77.77,0,0,0,.61-.31L11.82,1.19A.75.75,0,0,0,11.65.14Z" />
    <path
        d="M3.57,8.25a.74.74,0,0,0,.75-.75V3.16A1.65,1.65,0,0,1,7.24,2.1a.75.75,0,0,0,1.06.09.77.77,0,0,0,.09-1.06,3.15,3.15,0,0,0-5.57,2V7.5A.75.75,0,0,0,3.57,8.25Z" />
    <path
        d="M7.73,10.63A3.1,3.1,0,0,0,9,8.85a.74.74,0,0,0-.51-.92.76.76,0,0,0-.93.52,1.7,1.7,0,0,1-.68.94.75.75,0,0,0,.42,1.37A.74.74,0,0,0,7.73,10.63Z" />
    <path
        d="M.84,10.83a.77.77,0,0,0,.63.34h0a.74.74,0,0,0,.62-.35h0a.74.74,0,0,0,0-.76.73.73,0,0,0-.65-.38.72.72,0,0,0-.6.37l0,0,0,0,0,0A.87.87,0,0,0,.84,10.83Z" />
    <path
        d="M10.85,9.75a.77.77,0,0,0-1,.31A4.37,4.37,0,0,1,6,12.4a5.37,5.37,0,0,1-.74-.07A.75.75,0,1,0,5,13.8l.25,0v.67H3.57a.75.75,0,0,0,0,1.5H8.39a.75.75,0,0,0,0-1.5H6.73v-.66a5.92,5.92,0,0,0,4.43-3.08A.76.76,0,0,0,10.85,9.75Z" />
</svg>