<svg xmlns="http://www.w3.org/2000/svg" viewBox="0 0 11.1 15.26">
    <g id="圖層_2" data-name="圖層 2">
        <g id="圖層_1-2" data-name="圖層 1">
            <path class="cls-1"
                d="M10.08,1.76a.5.5,0,0,0-.7.09L5.16,7.3.93,12.74a.5.5,0,0,0,.09.7.51.51,0,0,0,.31.11.49.49,0,0,0,.39-.2L6,7.91l4.22-5.45A.5.5,0,0,0,10.08,1.76Z" />
            <path class="cls-1"
                d="M10.08,1.76a.5.5,0,0,0-.7.09L5.16,7.3.93,12.74a.5.5,0,0,0,.09.7.51.51,0,0,0,.31.11.49.49,0,0,0,.39-.2L6,7.91l4.22-5.45A.5.5,0,0,0,10.08,1.76Z" />
            <path class="cls-2"
                d="M10.88,8.81a.51.51,0,0,0-.7.14,5.51,5.51,0,0,1-4.56,2.52l-.07,0-.07,0a5.51,5.51,0,0,1-.71-.06.51.51,0,0,0-.57.43.5.5,0,0,0,.42.56l.43,0v1.82H3.87a.5.5,0,0,0-.5.5.5.5,0,0,0,.5.5H7.23a.5.5,0,0,0,.5-.5.5.5,0,0,0-.5-.5H6.05V12.44A6.48,6.48,0,0,0,11,9.5.5.5,0,0,0,10.88,8.81Z" />
            <path class="cls-2"
                d="M.92,9a.5.5,0,0,0-.69-.15.51.51,0,0,0-.15.7,6.46,6.46,0,0,0,.75.92.48.48,0,0,0,.36.16.52.52,0,0,0,.35-.14.49.49,0,0,0,0-.7A5.16,5.16,0,0,1,.92,9Z" />
            <path class="cls-2"
                d="M3.12,8.1a.51.51,0,0,1-.49-.39,3.09,3.09,0,0,1-.07-.66V3A3,3,0,0,1,8.11,1.46a.5.5,0,0,1-.17.69A.51.51,0,0,1,7.25,2a2,2,0,0,0-1.7-1,2,2,0,0,0-2,2V7.05a1.75,1.75,0,0,0,0,.44.5.5,0,0,1-.38.6Z" />
            <path class="cls-2"
                d="M6.79,9.7a.5.5,0,0,1-.25-.93,2,2,0,0,0,.92-1.19.5.5,0,0,1,.62-.34.49.49,0,0,1,.34.61A2.94,2.94,0,0,1,7,9.63.45.45,0,0,1,6.79,9.7Z" />
        </g>
    </g>
</svg>