<svg xmlns="http://www.w3.org/2000/svg" viewBox="0 0 12.58 15.47">
    <path
        d="M12.5,1A1.45,1.45,0,0,0,12,.32a1.26,1.26,0,0,0-.44-.24A1.56,1.56,0,0,0,11.08,0a1.27,1.27,0,0,0-.34,0,1.56,1.56,0,0,0-.61.29L9.89.58,5.67,6,1.45,11.47a.86.86,0,0,0-.1.16L.11,14a1,1,0,0,0,.27,1.25,1,1,0,0,0,.62.22,1,1,0,0,0,.66-.25l2-1.77.13-.14L6,10.45,8,7.87l4.23-5.45A1.52,1.52,0,0,0,12.5,1Zm-1.82.16a.53.53,0,0,1,.4-.19.47.47,0,0,1,.31.11.51.51,0,0,1,.09.7L7.25,7.25l-4.18,5.4A3.37,3.37,0,0,0,2.29,12L6.46,6.64ZM1,14.47l.81-1.56a2,2,0,0,1,.51.4h0Z" />
</svg>