<svg xmlns="http://www.w3.org/2000/svg" viewBox="0 0 16.01 16.05">
    <path d="M10.42,9.7H5.6a.75.75,0,1,0,0,1.5h4.82a.75.75,0,0,0,0-1.5Z" />
    <path d="M10.42,12.43H5.6a.75.75,0,0,0,0,1.5h4.82a.75.75,0,1,0,0-1.5Z" />
    <path d="M10.42,4.27a.76.76,0,0,0,.75-.75V2.9a.75.75,0,0,0-1.5,0v.62A.75.75,0,0,0,10.42,4.27Z" />
    <path
        d="M15.75,2.33,13.33.22,13.2.14,13.12.09A.88.88,0,0,0,12.84,0L5.6,0a.47.47,0,0,0-.21,0H2.16A2.17,2.17,0,0,0,0,2.2V13.88A2.16,2.16,0,0,0,2.16,16H13.85A2.16,2.16,0,0,0,16,13.88V2.9A.75.75,0,0,0,15.75,2.33ZM3.92,1.53h8.17V4.22a.67.67,0,0,1-.67.66H4.59a.67.67,0,0,1-.67-.66Zm8.17,13H3.92V9.46a.67.67,0,0,1,.67-.67h6.83a.67.67,0,0,1,.67.67Zm2.42-.66a.66.66,0,0,1-.66.66h-.26V9.46a2.17,2.17,0,0,0-2.17-2.17H4.59A2.17,2.17,0,0,0,2.42,9.46v5.08H2.16a.66.66,0,0,1-.66-.66V2.2a.67.67,0,0,1,.66-.67h.26V4.22A2.17,2.17,0,0,0,4.59,6.38h6.83a2.17,2.17,0,0,0,2.17-2.16V2.43l.92.81Z" />
</svg>