<svg xmlns="http://www.w3.org/2000/svg" viewBox="0 0 15.55 15.55">
    <path
        d="M15.41,2.89,12.66.15A.47.47,0,0,0,12.31,0h-10A2.3,2.3,0,0,0,0,2.29v11a2.29,2.29,0,0,0,2.29,2.28h11a2.28,2.28,0,0,0,2.28-2.28V6.93h0V3.24A.5.5,0,0,0,15.41,2.89ZM8.79,1h1.84V2.46A1.29,1.29,0,0,1,9.34,3.75H6.21A1.28,1.28,0,0,1,4.93,2.46V1Zm-5,13.55V10.06A1.28,1.28,0,0,1,5.07,8.78h5.41a1.28,1.28,0,0,1,1.29,1.28v4.49Zm10.77-1.28a1.28,1.28,0,0,1-1.28,1.28h-.5V10.06a2.28,2.28,0,0,0-2.29-2.28H5.07a2.29,2.29,0,0,0-2.29,2.28v4.49H2.29A1.28,1.28,0,0,1,1,13.27v-11A1.29,1.29,0,0,1,2.29,1H3.93V2.46A2.29,2.29,0,0,0,6.21,4.75H9.34a2.3,2.3,0,0,0,2.29-2.29V1h.47l2.45,2.45Z" />
    <path d="M9.25,3.39a.63.63,0,0,0,.62-.63V2A.63.63,0,0,0,8.62,2v.78A.63.63,0,0,0,9.25,3.39Z" />
    <path d="M9.86,9.78H5.71a.5.5,0,0,0-.5.5.51.51,0,0,0,.5.5H9.86a.5.5,0,0,0,.5-.5A.5.5,0,0,0,9.86,9.78Z" />
    <path d="M9.86,11.78H5.71a.5.5,0,0,0-.5.5.51.51,0,0,0,.5.5H9.86a.5.5,0,0,0,.5-.5A.5.5,0,0,0,9.86,11.78Z" />
</svg>