<svg xmlns="http://www.w3.org/2000/svg" viewBox="0 0 16.01 16.01">
    <path
        d="M5.58,3.92a.73.73,0,0,0,.53-.22L7.26,2.56V8a.75.75,0,0,0,1.5,0V2.56L9.9,3.7A.74.74,0,0,0,11,3.7a.75.75,0,0,0,0-1.06L8.54.22A.78.78,0,0,0,8.3.06.75.75,0,0,0,8,0a.72.72,0,0,0-.29.06.67.67,0,0,0-.24.16L5.05,2.64a.75.75,0,0,0,0,1.06A.74.74,0,0,0,5.58,3.92Z" />
    <path
        d="M13.85,2.11H12.67a.75.75,0,0,0,0,1.5h1.18a.67.67,0,0,1,.66.67v7.45a.67.67,0,0,1-.66.67H2.17a.67.67,0,0,1-.67-.67V4.28a.67.67,0,0,1,.67-.67H3.35a.75.75,0,0,0,0-1.5H2.17A2.17,2.17,0,0,0,0,4.28v7.45A2.17,2.17,0,0,0,2.17,13.9H7.26v.61H4.92a.75.75,0,0,0,0,1.5H11a.75.75,0,0,0,0-1.5H8.76V13.9h5.09A2.17,2.17,0,0,0,16,11.73V4.28A2.17,2.17,0,0,0,13.85,2.11Z" />
</svg>