<svg xmlns="http://www.w3.org/2000/svg" viewBox="0 0 15.55 15.26"><defs><style>.cls-1{fill:#231815;}.cls-2{fill:#040000;}</style></defs><title>screen_share</title><g id="圖層_2" data-name="圖層 2"><g id="圖層_1-2" data-name="圖層 1"><path class="cls-1" d="M11.66,3.68,8.13.15A.42.42,0,0,0,8,0a.43.43,0,0,0-.19,0,.45.45,0,0,0-.2,0,.42.42,0,0,0-.16.11L3.89,3.68a.5.5,0,0,0,0,.71.5.5,0,0,0,.7,0L7.28,1.71V7.83a.5.5,0,0,0,.5.5.5.5,0,0,0,.5-.5V1.71L11,4.39a.48.48,0,0,0,.7,0A.5.5,0,0,0,11.66,3.68Z"/><path class="cls-2" d="M13.27,2.42H12.08a.5.5,0,0,0-.5.5.51.51,0,0,0,.5.5h1.19A1.28,1.28,0,0,1,14.55,4.7v5.47a1.28,1.28,0,0,1-1.28,1.28h-11A1.28,1.28,0,0,1,1,10.17V4.7A1.28,1.28,0,0,1,2.29,3.42H3.47a.51.51,0,0,0,.5-.5.5.5,0,0,0-.5-.5H2.29A2.29,2.29,0,0,0,0,4.7v5.47a2.29,2.29,0,0,0,2.29,2.28h5v1.81H6.1a.5.5,0,0,0-.5.5.5.5,0,0,0,.5.5H9.46a.5.5,0,0,0,.5-.5.51.51,0,0,0-.5-.5H8.28V12.45h5a2.28,2.28,0,0,0,2.28-2.28V4.7A2.28,2.28,0,0,0,13.27,2.42Z"/></g></g></svg>