<svg xmlns="http://www.w3.org/2000/svg" viewBox="0 0 15.5 16.01">
    <path
        d="M7.75,11.16A3.16,3.16,0,1,1,10.91,8,3.16,3.16,0,0,1,7.75,11.16Zm0-4.81A1.66,1.66,0,1,0,9.41,8,1.66,1.66,0,0,0,7.75,6.35Z" />
    <path
        d="M7.75,16a7.87,7.87,0,0,1-2.07-.28.76.76,0,0,1-.53-.92l.37-1.37a6.35,6.35,0,0,1-1.37-.77l-1,1a.75.75,0,0,1-1.06,0A8,8,0,0,1,0,10.08a.75.75,0,0,1,.53-.92l1.36-.37a5.17,5.17,0,0,1,0-1.57L.56,6.85A.74.74,0,0,1,0,5.94a7.93,7.93,0,0,1,2.06-3.6.75.75,0,0,1,1.06,0l1,1a6,6,0,0,1,1.37-.78L5.15,1.2A.76.76,0,0,1,5.68.28a7.86,7.86,0,0,1,4.14,0,.77.77,0,0,1,.46.35.75.75,0,0,1,.07.57L10,2.57a5.59,5.59,0,0,1,1.37.78l1-1a.75.75,0,0,1,1.06,0,8,8,0,0,1,2.07,3.6.74.74,0,0,1-.53.91l-1.37.37a5.17,5.17,0,0,1,0,1.57L15,9.16a.75.75,0,0,1,.53.92,8.06,8.06,0,0,1-2.07,3.59.75.75,0,0,1-1.06,0l-1-1a5.91,5.91,0,0,1-1.37.77l.37,1.37a.75.75,0,0,1-.07.57.77.77,0,0,1-.46.35A7.81,7.81,0,0,1,7.75,16Zm-.94-1.57a6,6,0,0,0,1.89,0l-.35-1.29a.75.75,0,0,1,.08-.57.72.72,0,0,1,.45-.35,4.42,4.42,0,0,0,2-1.12.75.75,0,0,1,1.06,0l.93.93a6.69,6.69,0,0,0,1-1.64l-1.29-.34a.78.78,0,0,1-.46-.35A.72.72,0,0,1,12,9.14,4.51,4.51,0,0,0,12.14,8,4.52,4.52,0,0,0,12,6.87a.72.72,0,0,1,.07-.57A.73.73,0,0,1,12.51,6l1.29-.35a6.69,6.69,0,0,0-1-1.64l-.93.93a.75.75,0,0,1-1.06,0,4.42,4.42,0,0,0-2-1.12.72.72,0,0,1-.45-.35.75.75,0,0,1-.08-.57L8.7,1.57a6.65,6.65,0,0,0-1.89,0l.34,1.29a.75.75,0,0,1-.07.57.73.73,0,0,1-.46.35,4.39,4.39,0,0,0-2,1.12.75.75,0,0,1-1.06,0L2.65,4a6.35,6.35,0,0,0-.94,1.64L3,6a.74.74,0,0,1,.53.91,3.87,3.87,0,0,0,0,2.27.75.75,0,0,1-.53.92l-1.29.34A6.35,6.35,0,0,0,2.65,12l.94-.93a.75.75,0,0,1,1.06,0,4.39,4.39,0,0,0,2,1.12.73.73,0,0,1,.46.35.75.75,0,0,1,.07.57Z" />
</svg>