<svg xmlns="http://www.w3.org/2000/svg" viewBox="0 0 14.69 15.18"><defs><style>.cls-1{fill:#231815;}</style></defs><title>setting</title><g id="圖層_2" data-name="圖層 2"><g id="圖層_1-2" data-name="圖層 1"><path class="cls-1" d="M7.35,15.18a7.9,7.9,0,0,1-2-.26.53.53,0,0,1-.3-.23.46.46,0,0,1,0-.38l.23-.85a6.4,6.4,0,0,1-1.95-1.12L2.68,13A.48.48,0,0,1,2,13,7.5,7.5,0,0,1,0,9.55a.5.5,0,0,1,.35-.61l.85-.23a6.07,6.07,0,0,1-.11-1.12,6.16,6.16,0,0,1,.11-1.12L.37,6.24A.49.49,0,0,1,0,5.63,7.55,7.55,0,0,1,2,2.22a.5.5,0,0,1,.7,0l.63.63A6,6,0,0,1,5.26,1.73L5,.88a.46.46,0,0,1,0-.38.51.51,0,0,1,.3-.24,7.49,7.49,0,0,1,3.93,0,.48.48,0,0,1,.3.24.46.46,0,0,1,.05.38l-.23.85a6,6,0,0,1,2,1.12L12,2.22a.5.5,0,0,1,.7,0,7.55,7.55,0,0,1,2,3.41.49.49,0,0,1-.35.61l-.85.23a5.76,5.76,0,0,1,0,2.24l.85.23a.5.5,0,0,1,.35.61,7.5,7.5,0,0,1-2,3.41.48.48,0,0,1-.7,0l-.63-.62a6.4,6.4,0,0,1-2,1.12l.23.85a.47.47,0,0,1-.05.38.5.5,0,0,1-.3.23A7.88,7.88,0,0,1,7.35,15.18ZM6.13,14.07a6.62,6.62,0,0,0,2.43,0l-.22-.82a.56.56,0,0,1,.05-.38.52.52,0,0,1,.31-.23A5.25,5.25,0,0,0,11,11.29a.51.51,0,0,1,.71,0l.6.6a6.57,6.57,0,0,0,1.21-2.12l-.81-.21a.53.53,0,0,1-.31-.24.55.55,0,0,1,0-.38,5.24,5.24,0,0,0,.19-1.35,5.3,5.3,0,0,0-.19-1.35.55.55,0,0,1,0-.38.48.48,0,0,1,.31-.23l.81-.22A6.52,6.52,0,0,0,12.35,3.3l-.6.59A.47.47,0,0,1,11.4,4h0A.49.49,0,0,1,11,3.89,5.25,5.25,0,0,0,8.7,2.54a.48.48,0,0,1-.31-.23.55.55,0,0,1-.05-.38l.22-.81a6.21,6.21,0,0,0-2.43,0l.22.81A.5.5,0,0,1,6,2.54,5.25,5.25,0,0,0,3.65,3.89a.51.51,0,0,1-.71,0l-.6-.59A6.52,6.52,0,0,0,1.13,5.41l.81.22a.5.5,0,0,1,.36.61,5.36,5.36,0,0,0-.19,1.35A5.3,5.3,0,0,0,2.3,8.94a.51.51,0,0,1-.36.62l-.81.21a6.57,6.57,0,0,0,1.21,2.12l.6-.6a.51.51,0,0,1,.35-.15h0a.53.53,0,0,1,.36.15A5.25,5.25,0,0,0,6,12.64a.52.52,0,0,1,.31.23.56.56,0,0,1,0,.38Z"/><path class="cls-1" d="M7.35,10.94a3.32,3.32,0,1,1,3.31-3.31A3.32,3.32,0,0,1,7.35,10.94Zm0-5.63A2.32,2.32,0,1,0,9.66,7.63,2.32,2.32,0,0,0,7.35,5.31Z"/></g></g></svg>