<svg xmlns="http://www.w3.org/2000/svg" viewBox="0 0 11.17 16.01">
    <path
        d="M11.17,4.23A2.12,2.12,0,0,0,9.05,2.11H8.74v-.3A1.81,1.81,0,0,0,6.94,0H4.23A1.81,1.81,0,0,0,2.42,1.81v.3h-.3A2.12,2.12,0,0,0,0,4.23,2.06,2.06,0,0,0,.53,5.61,2.13,2.13,0,0,0,0,7v6.84A2.17,2.17,0,0,0,2.17,16H9a2.17,2.17,0,0,0,2.17-2.16V7a2.19,2.19,0,0,0-.53-1.4A2.11,2.11,0,0,0,11.17,4.23ZM3.92,1.81a.31.31,0,0,1,.31-.31H6.94a.31.31,0,0,1,.3.31v.3H3.92Zm-1.8,1.8H9.05a.62.62,0,0,1,0,1.24H2.12a.62.62,0,0,1,0-1.24ZM9.67,13.85a.67.67,0,0,1-.67.66H2.17a.67.67,0,0,1-.67-.66V7a.66.66,0,0,1,.66-.66H9A.67.67,0,0,1,9.67,7Z" />
    <path d="M5.58,7.26A.75.75,0,0,0,4.83,8v5.14a.75.75,0,0,0,1.5,0V8A.74.74,0,0,0,5.58,7.26Z" />
    <path d="M8,7.26A.75.75,0,0,0,7.24,8v5.14a.75.75,0,0,0,1.5,0V8A.74.74,0,0,0,8,7.26Z" />
    <path d="M3.17,7.26A.75.75,0,0,0,2.42,8v5.14a.75.75,0,0,0,1.5,0V8A.74.74,0,0,0,3.17,7.26Z" />
</svg>