<svg xmlns="http://www.w3.org/2000/svg" viewBox="0 0 11.55 14.33">
    <path
        d="M1,12a2.29,2.29,0,0,0,2.29,2.29h5A2.29,2.29,0,0,0,10.52,12V6.85A2.28,2.28,0,0,0,8.23,4.57h-5A2.28,2.28,0,0,0,1,6.85ZM2,6.85A1.28,1.28,0,0,1,3.26,5.57h5A1.28,1.28,0,0,1,9.52,6.85V12a1.29,1.29,0,0,1-1.29,1.29h-5A1.29,1.29,0,0,1,2,12Z" />
    <path
        d="M10.05,1.09H7.86V1a1,1,0,0,0-1-1H4.73a1,1,0,0,0-1,1s0,0,0,.05H1.5a1.5,1.5,0,0,0,0,3h8.55a1.5,1.5,0,0,0,0-3Zm0,2H1.5a.5.5,0,0,1-.5-.5.5.5,0,0,1,.5-.5h8.55a.5.5,0,0,1,.5.5A.5.5,0,0,1,10.05,3.09Z" />
    <path d="M7.83,12.33a.51.51,0,0,1-.5-.5V7.06a.51.51,0,0,1,.5-.5.5.5,0,0,1,.5.5v4.77A.5.5,0,0,1,7.83,12.33Z" />
    <path d="M5.74,12.33a.51.51,0,0,1-.5-.5V7.06a.51.51,0,0,1,.5-.5.5.5,0,0,1,.5.5v4.77A.5.5,0,0,1,5.74,12.33Z" />
    <path d="M3.66,12.33a.5.5,0,0,1-.5-.5V7.06a.5.5,0,0,1,.5-.5.51.51,0,0,1,.5.5v4.77A.51.51,0,0,1,3.66,12.33Z" />
</svg>