<svg xmlns="http://www.w3.org/2000/svg" viewBox="0 0 16.01 16.01">
    <path
        d="M13.68.14a.75.75,0,0,0-1,.17L2.17,14.82a.74.74,0,0,0,.17,1,.69.69,0,0,0,.43.14.71.71,0,0,0,.61-.31L13.85,1.19A.76.76,0,0,0,13.68.14Z" />
    <path
        d="M2.3,13.33a.76.76,0,0,0-.4-1,.66.66,0,0,1-.4-.61V4.28a.66.66,0,0,1,.67-.66H8.94a.75.75,0,0,0,0-1.5H2.17A2.17,2.17,0,0,0,0,4.28v7.45a2.17,2.17,0,0,0,1.31,2,.8.8,0,0,0,.3.06A.75.75,0,0,0,2.3,13.33Z" />
    <path
        d="M15.64,2.22a.74.74,0,0,0-.75,0L13.59,3a.75.75,0,1,0,.74,1.3l.18-.1v7.71L11.17,10V8.51a.75.75,0,0,0-1.5,0v3.22A.67.67,0,0,1,9,12.4H7.07a.75.75,0,1,0,0,1.5H9a2.17,2.17,0,0,0,2.17-2.17v0l3.72,2.1a.74.74,0,0,0,.37.1.86.86,0,0,0,.38-.1.77.77,0,0,0,.37-.65V2.87A.74.74,0,0,0,15.64,2.22Z" />
</svg>