<svg xmlns="http://www.w3.org/2000/svg" viewBox="0 0 15.19 11.89">
    <g id="圖層_2" data-name="圖層 2">
        <g id="圖層_1-2" data-name="圖層 1">
            <path class="cls-1"
                d="M12.12.11a.49.49,0,0,0-.7.08L7.2,5.64,3,11.09a.49.49,0,0,0,.39.8.5.5,0,0,0,.4-.19L8,6.25,12.21.81A.49.49,0,0,0,12.12.11Z" />
            <path class="cls-2"
                d="M2.85,9.12H2.29A1.29,1.29,0,0,1,1,7.83V4.06A1.29,1.29,0,0,1,2.29,2.77H8.54a.5.5,0,0,0,.5-.5.5.5,0,0,0-.5-.5H2.29A2.3,2.3,0,0,0,0,4.06V7.83a2.29,2.29,0,0,0,2.29,2.29h.56a.5.5,0,0,0,.5-.5A.51.51,0,0,0,2.85,9.12Z" />
            <path class="cls-2"
                d="M14.93,1.83a.49.49,0,0,0-.51,0L12.28,3.23a2.59,2.59,0,0,0-.17-.38.5.5,0,0,0-.85.53,1.28,1.28,0,0,1,.2.68V7.83a1.28,1.28,0,0,1-1.28,1.29H6.64a.51.51,0,0,0-.5.5.5.5,0,0,0,.5.5h3.54A2.29,2.29,0,0,0,12.3,8.67L14.42,10a.43.43,0,0,0,.27.08.53.53,0,0,0,.24-.06.51.51,0,0,0,.26-.44V2.27A.51.51,0,0,0,14.93,1.83ZM14.19,8.7,12.46,7.59V4.3l1.73-1.11Z" />
        </g>
    </g>
</svg>