<svg xmlns="http://www.w3.org/2000/svg" viewBox="0 0 15.19 8.35">
    <g id="圖層_2" data-name="圖層 2">
        <g id="圖層_1-2" data-name="圖層 1">
            <path class="cls-1"
                d="M14.92.06a.49.49,0,0,0-.51,0L12.3,1.45A2.29,2.29,0,0,0,10.17,0H2.29A2.3,2.3,0,0,0,0,2.29V6.06A2.3,2.3,0,0,0,2.29,8.35h7.88A2.29,2.29,0,0,0,12.3,6.9l2.11,1.37a.57.57,0,0,0,.28.08.46.46,0,0,0,.23-.06.5.5,0,0,0,.27-.44V.5A.5.5,0,0,0,14.92.06ZM10.17,7.35H2.29A1.29,1.29,0,0,1,1,6.06V2.29A1.29,1.29,0,0,1,2.29,1h7.88a1.29,1.29,0,0,1,1.29,1.29V6.06A1.29,1.29,0,0,1,10.17,7.35Zm4-.42L12.46,5.82V2.53l1.73-1.11Z" />
        </g>
    </g>
</svg>