<svg xmlns="http://www.w3.org/2000/svg" viewBox="0 0 60.84 106.13"><title>favicon</title><polygon points="30.68 52.25 18.65 57.99 11.53 66.67 0.47 72.11 0 74.8 3.31 75.82 6.72 78.48 18 75.34 23.85 73.39 25.15 75.12 18.1 80.11 6.18 92.79 4.35 100.54 18.21 106.13 45.23 103.47 53.12 95.7 45.96 89.11 46.5 87.26 50.08 84.23 49.87 74.47 41.74 62.33 36.75 58.21 44.55 57.89 49 50.08 34.8 54.2 47.1 46.99 58.24 34.63 60.84 19.92 57.26 6.5 41.84 0 48.73 7.97 52.87 17.99 49.78 13.57 41.98 11.46 48.97 22.03 50.27 29.75 43.52 40.83 39.3 43.62 40.64 39.1 37.67 33.06 35.64 43.56 31.76 47.91 29 47.31 25.15 43.58 26.56 47.48 28.22 49.16 21.44 46.03 17.94 41.52 16.54 34.04 14.47 37.56 15.13 41.57 10.95 37.83 7.8 30.89 8.56 39.35 14.37 47.37 24.61 51.82 30.68 52.25" style="fill:#fff"/></svg>